<svg width="25" height="24" viewBox="0 0 25 24" fill="none" xmlns="http://www.w3.org/2000/svg">
<path d="M10.3344 16.8043C10.3963 16.8663 10.4698 16.9155 10.5508 16.9491C10.6317 16.9827 10.7184 17 10.8061 17C10.8937 17 10.9804 16.9827 11.0614 16.9491C11.1423 16.9155 11.2158 16.8663 11.2777 16.8043L15.7062 12.3758C15.7556 12.3265 15.7948 12.2679 15.8216 12.2034C15.8483 12.139 15.8621 12.0699 15.8621 12.0001C15.8621 11.9303 15.8483 11.8612 15.8216 11.7967C15.7948 11.7322 15.7556 11.6737 15.7062 11.6244L11.2777 7.19585C11.0166 6.93472 10.5956 6.93472 10.3344 7.19585C10.0733 7.45697 10.0733 7.87798 10.3344 8.1391L14.1927 12.0027L10.3291 15.8664C10.0733 16.1222 10.0733 16.5485 10.3344 16.8043Z" fill="#BBBBBB"/>
</svg>
